<svg width="76" height="76" viewBox="0 0 76 76" fill="none" xmlns="http://www.w3.org/2000/svg">
<g clip-path="url(#clip0_94_161)">
<path d="M16.2491 23.2534L16.8116 24.3784C17.1911 25.139 17.9684 25.6183 18.8182 25.6183C19.4366 25.6183 19.9976 25.3673 20.4044 24.9621C20.8096 24.5553 21.0606 23.9943 21.0606 23.3759V21.578C21.363 21.8668 21.6034 22.2252 21.7562 22.6334L24.3419 29.5301C24.5505 30.0881 25.0843 30.457 25.6801 30.457C26.0747 30.457 26.4316 30.2967 26.6901 30.0382C26.9487 29.7796 27.109 29.4228 27.109 29.0281C27.109 28.3703 27.0349 27.7141 26.8867 27.073L23.6947 13.2403C23.5525 12.6234 23.48 11.9913 23.48 11.3592C23.48 11.2791 23.483 11.2005 23.4905 11.1234L24.0697 12.2816C24.4492 13.0422 25.2264 13.5215 26.0762 13.5215C26.6947 13.5215 27.2557 13.2705 27.6624 12.8653C28.0677 12.4585 28.3187 11.8976 28.3187 11.2791V9.78516C28.5349 10.08 28.6906 10.4233 28.7723 10.7983L31.7209 24.5614C31.8539 25.1783 32.3983 25.6183 33.0288 25.6183C33.3993 25.6183 33.7335 25.4686 33.9754 25.2267C34.2174 24.9848 34.3671 24.6506 34.3671 24.2801V7.47316C34.3671 6.39957 34.8343 5.43334 35.5767 4.76953V6.26348C35.5767 7.60018 36.6594 8.68284 37.9961 8.68284C38.6644 8.68284 39.2693 8.41217 39.7078 7.97518C40.1448 7.53667 40.4154 6.93183 40.4154 6.26348V4.76953C40.4653 4.81338 40.5137 4.86026 40.5621 4.90713C41.2184 5.56489 41.6251 6.47215 41.6251 7.47316V24.2801C41.6251 25.0195 42.2239 25.6183 42.9633 25.6183C43.2794 25.6183 43.5727 25.5079 43.804 25.322C44.0354 25.1345 44.2048 24.8698 44.2713 24.5614L47.2199 10.7983C47.3015 10.4233 47.4573 10.08 47.6735 9.78516V11.4122C47.6735 12.578 48.6171 13.5215 49.7829 13.5215C50.2365 13.5215 50.6644 13.3764 51.0152 13.1239C51.366 12.8713 51.6397 12.51 51.7834 12.079L52.3398 10.4112C52.4517 10.706 52.5122 11.0251 52.5122 11.3592C52.5122 11.9928 52.4623 12.6264 52.364 13.2539L49.0147 34.4626C48.927 35.0175 48.8832 35.577 48.8832 36.1395C48.8832 36.575 49.0601 36.9681 49.3444 37.2539C49.6302 37.5382 50.0233 37.7151 50.4588 37.7151C50.7219 37.7151 50.9774 37.6486 51.2027 37.5291C51.428 37.4081 51.6231 37.2327 51.7698 37.0135L54.9709 32.2111C55.7027 31.1148 56.9321 30.457 58.2491 30.457C59.3378 30.457 60.3222 30.8986 61.0359 31.6108C61.0752 31.6501 61.1145 31.6909 61.1523 31.7332C60.3101 31.8769 59.5329 32.2474 58.8978 32.7887C58.2627 33.33 57.7683 34.0437 57.4915 34.8739C57.3978 35.1536 57.3509 35.4454 57.3509 35.7403C57.3509 36.9197 58.1055 37.9661 59.2244 38.3396L60.8106 38.8688L57.6246 44.3305C55.045 48.7534 51.6715 52.6622 47.6735 55.8603V75.2151H28.3187V55.8603C26.3605 54.2937 24.6972 52.4187 23.3847 50.323C22.0722 48.2287 21.109 45.9137 20.554 43.4686L16.293 24.7217C16.2461 24.513 16.2219 24.3013 16.2219 24.0881V23.6375C16.2219 23.5074 16.231 23.3789 16.2491 23.2534Z" fill="#F0D0B4"/>
<path d="M47.6735 47.3924C49.0097 47.3924 50.0929 46.3092 50.0929 44.9731C50.0929 43.6369 49.0097 42.5537 47.6735 42.5537C46.3373 42.5537 45.2542 43.6369 45.2542 44.9731C45.2542 46.3092 46.3373 47.3924 47.6735 47.3924Z" fill="#FF826E"/>
<path d="M37.9961 44.9735C39.3322 44.9735 40.4154 43.8903 40.4154 42.5541C40.4154 41.2179 39.3322 40.1348 37.9961 40.1348C36.6599 40.1348 35.5767 41.2179 35.5767 42.5541C35.5767 43.8903 36.6599 44.9735 37.9961 44.9735Z" fill="#FF826E"/>
<path d="M62.1897 34.3977C62.1897 35.0872 62.0989 35.7722 61.919 36.433C61.7406 37.0938 61.476 37.7304 61.1267 38.3261L60.8106 38.869L59.2244 38.3397C58.1055 37.9663 57.351 36.9199 57.351 35.7405C57.351 35.4456 57.3978 35.1538 57.4916 34.874C57.7683 34.0439 58.2627 33.3302 58.8978 32.7888C59.5329 32.2475 60.3101 31.877 61.1524 31.7334C61.7965 32.435 62.1897 33.3695 62.1897 34.3977Z" fill="#FCD770"/>
<path d="M52.3399 10.4114L51.7834 12.0793C51.6398 12.5102 51.3661 12.8716 51.0153 13.1241C50.6645 13.3767 50.2365 13.5218 49.7829 13.5218C48.6171 13.5218 47.6735 12.5783 47.6735 11.4124V9.78542V9.78391C48.165 9.10952 48.9588 8.68311 49.8358 8.68311C50.5752 8.68311 51.2451 8.9825 51.729 9.46637C51.9951 9.7325 52.2038 10.0531 52.3399 10.4114Z" fill="#FCD770"/>
<path d="M40.4154 4.76964V6.26359C40.4154 6.93194 40.1448 7.53678 39.7078 7.97529C39.2693 8.41228 38.6644 8.68295 37.9961 8.68295C36.6594 8.68295 35.5767 7.60029 35.5767 6.26359V4.76964V4.76813C36.2194 4.19353 37.0676 3.84424 37.9961 3.84424C38.9245 3.84424 39.7728 4.19353 40.4154 4.76813V4.76964Z" fill="#FCD770"/>
<path d="M28.3187 9.78542V11.2794C28.3187 11.8978 28.0677 12.4588 27.6624 12.8656C27.2557 13.2708 26.6947 13.5218 26.0762 13.5218C25.2264 13.5218 24.4492 13.0425 24.0697 12.2819L23.4905 11.1236C23.5465 10.478 23.8308 9.89883 24.2632 9.46637C24.7471 8.9825 25.4169 8.68311 26.1564 8.68311C26.7869 8.68311 27.3751 8.90387 27.8378 9.27887C28.0178 9.42403 28.1796 9.5949 28.3187 9.78391V9.78542Z" fill="#FCD770"/>
<path d="M21.0606 21.5782V23.3761C21.0606 23.9945 20.8096 24.5555 20.4044 24.9622C19.9976 25.3675 19.4366 25.6185 18.8182 25.6185C17.9684 25.6185 17.1912 25.1392 16.8116 24.3786L16.2491 23.2536C16.4351 21.8564 17.6312 20.7798 19.0798 20.7798C19.6755 20.7798 20.2395 20.9643 20.7083 21.2894C20.8338 21.3756 20.9517 21.4723 21.0606 21.5767V21.5782Z" fill="#FCD770"/>
<path d="M58.6697 44.9408L62.1721 38.9366C62.975 37.5601 63.3993 35.9906 63.3993 34.3971C63.3993 31.5577 61.0893 29.2477 58.2497 29.2477C56.5241 29.2477 54.9224 30.1049 53.9651 31.5408L50.7636 36.3427C50.6958 36.4448 50.5817 36.5057 50.459 36.5057C50.2571 36.5057 50.0927 36.3414 50.0927 36.1395C50.0927 35.6429 50.132 35.1423 50.2095 34.6516L53.5582 13.4423C53.6667 12.7549 53.7216 12.0539 53.7216 11.3588C53.7219 9.21632 51.9791 7.47347 49.8366 7.47347C48.0166 7.47347 46.4188 8.76511 46.0376 10.5448L43.0884 24.3075C43.0758 24.3665 43.0231 24.4091 42.963 24.4091C42.8923 24.4091 42.8348 24.3516 42.8348 24.2809V7.47347C42.8348 4.80538 40.6642 2.63477 37.9961 2.63477C35.328 2.63477 33.1574 4.80538 33.1574 7.47347V24.2807C33.1574 24.3515 33.0999 24.409 33.0292 24.409C32.9691 24.409 32.9164 24.3663 32.9038 24.3076L29.9546 10.5447C29.5734 8.76511 27.9756 7.47347 26.1556 7.47347C24.0131 7.47347 22.2703 9.21632 22.2703 11.3588C22.2703 12.0828 22.3529 12.8077 22.5157 13.5131L25.7076 27.345C25.8348 27.8963 25.8993 28.4627 25.8993 29.0284C25.8993 29.1494 25.801 29.2477 25.6801 29.2477C25.5891 29.2477 25.5065 29.1904 25.4746 29.1055L22.8887 22.2098C22.2968 20.631 20.7661 19.5702 19.0799 19.5702C16.837 19.5702 15.0122 21.395 15.0122 23.6379V24.0882C15.0122 24.3913 15.0463 24.6946 15.1134 24.9899L19.3742 43.7369C20.4983 48.6825 23.2356 53.1686 27.109 56.4323V75.2154H29.5284V55.2792L29.0743 54.916C25.387 51.966 22.7799 47.8056 21.7332 43.2005L17.9893 26.727C18.2564 26.7923 18.5336 26.8283 18.8177 26.8283C19.9217 26.8283 20.9055 26.3068 21.538 25.498L23.2093 29.9552C23.5935 30.979 24.5864 31.667 25.6801 31.667C27.135 31.667 28.3187 30.4834 28.3187 29.0284C28.3187 28.2799 28.2334 27.5307 28.065 26.8011L25.2568 14.6326C25.521 14.6965 25.795 14.7315 26.0756 14.7315C26.8843 14.7315 27.6283 14.4513 28.2172 13.984L30.538 24.8147C30.7882 25.9814 31.8358 26.8282 33.029 26.8282C34.4338 26.8282 35.5766 25.6853 35.5766 24.2806V8.96576C36.2191 9.54172 37.0672 9.89283 37.996 9.89283C38.9247 9.89283 39.7728 9.54172 40.4153 8.96576V24.2807C40.4153 25.6855 41.5582 26.8283 42.9629 26.8283C44.1561 26.8283 45.2035 25.9814 45.4539 24.8145L47.7621 14.0431C48.3222 14.4742 49.0226 14.7315 49.7824 14.7315C50.1862 14.7315 50.5757 14.6567 50.9386 14.5218L47.8199 34.2742C47.7228 34.8893 47.6735 35.517 47.6735 36.1395C47.6735 37.6755 48.9231 38.9251 50.4591 38.9251C51.3928 38.9251 52.2591 38.4615 52.7769 37.6847L55.9781 32.8827C56.4856 32.1216 57.3349 31.667 58.2497 31.667C58.2851 31.667 58.3196 31.671 58.3547 31.6723C57.4346 32.3766 56.7248 33.3488 56.3437 34.4919C56.2093 34.8953 56.1411 35.3154 56.1411 35.7406C56.1411 37.4432 57.2264 38.949 58.8416 39.4874L59.0158 39.5455L56.5798 43.7218C54.0653 48.0324 50.8146 51.7986 46.9179 54.916L46.4639 55.2792V75.2154H48.8832V56.437C52.8122 53.2059 56.1029 49.341 58.6697 44.9408ZM18.8177 24.409C18.424 24.409 18.0698 24.1902 17.8937 23.8378L17.5241 23.0987C17.7482 22.4543 18.3602 21.9898 19.0801 21.9898C19.3542 21.9898 19.6176 22.0599 19.8511 22.1841V23.3759C19.8509 23.9455 19.3875 24.409 18.8177 24.409ZM26.0758 12.3122C25.682 12.3122 25.3279 12.0934 25.1518 11.7411L24.7514 10.9404C24.932 10.3354 25.4929 9.89298 26.1558 9.89298C26.5145 9.89298 26.8497 10.0268 27.1092 10.2497V11.2791C27.109 11.8487 26.6456 12.3122 26.0758 12.3122ZM37.9961 7.47347C37.3291 7.47347 36.7864 6.93078 36.7864 6.2638V5.38149C37.1428 5.17463 37.5552 5.05412 37.9961 5.05412C38.437 5.05412 38.8494 5.17463 39.2058 5.38149V6.2638C39.2058 6.93078 38.6631 7.47347 37.9961 7.47347ZM49.7824 12.3122C49.2866 12.3122 48.8832 11.9088 48.8832 11.4129V10.2495C49.1427 10.0268 49.4778 9.89283 49.8366 9.89283C50.3292 9.89283 50.765 10.1379 51.0308 10.5117L50.6356 11.6971C50.5129 12.065 50.1702 12.3122 49.7824 12.3122ZM58.5606 35.7406C58.5606 35.5759 58.5871 35.4131 58.6393 35.2569C58.9692 34.2669 59.7153 33.493 60.6612 33.12C60.8642 33.5015 60.9801 33.9359 60.9801 34.3973C60.9801 35.4447 60.7273 36.4773 60.2502 37.4068L59.6071 37.1925C58.9811 36.9837 58.5606 36.4003 58.5606 35.7406Z" fill="#111111"/>
<path d="M51.3026 44.9733C51.3026 42.9723 49.6745 41.3442 47.6735 41.3442C45.6726 41.3442 44.0445 42.9723 44.0445 44.9733C44.0445 46.9742 45.6726 48.6023 47.6735 48.6023C49.6745 48.6023 51.3026 46.9742 51.3026 44.9733ZM46.4638 44.9733C46.4638 44.3063 47.0065 43.7636 47.6735 43.7636C48.3405 43.7636 48.8832 44.3063 48.8832 44.9733C48.8832 45.6403 48.3405 46.1829 47.6735 46.1829C47.0065 46.1829 46.4638 45.6403 46.4638 44.9733Z" fill="#111111"/>
<path d="M34.3671 42.5538C34.3671 44.5548 35.9951 46.1829 37.9961 46.1829C39.9971 46.1829 41.6251 44.5548 41.6251 42.5538C41.6251 40.5529 39.9971 38.9248 37.9961 38.9248C35.9951 38.9248 34.3671 40.5529 34.3671 42.5538ZM37.9961 41.3442C38.6631 41.3442 39.2058 41.8869 39.2058 42.5538C39.2058 43.2208 38.6631 43.7635 37.9961 43.7635C37.3291 43.7635 36.7864 43.2208 36.7864 42.5538C36.7864 41.8869 37.3291 41.3442 37.9961 41.3442Z" fill="#111111"/>
<path d="M42.8348 36.5058C43.5029 36.5058 44.0445 35.9642 44.0445 35.2961C44.0445 34.628 43.5029 34.0864 42.8348 34.0864C42.1667 34.0864 41.6251 34.628 41.6251 35.2961C41.6251 35.9642 42.1667 36.5058 42.8348 36.5058Z" fill="#111111"/>
<path d="M54.9316 41.3442C55.5997 41.3442 56.1413 40.8026 56.1413 40.1345C56.1413 39.4664 55.5997 38.9248 54.9316 38.9248C54.2635 38.9248 53.7219 39.4664 53.7219 40.1345C53.7219 40.8026 54.2635 41.3442 54.9316 41.3442Z" fill="#111111"/>
<path d="M30.738 44.9736C31.4061 44.9736 31.9477 44.432 31.9477 43.7639C31.9477 43.0958 31.4061 42.5542 30.738 42.5542C30.0699 42.5542 29.5284 43.0958 29.5284 43.7639C29.5284 44.432 30.0699 44.9736 30.738 44.9736Z" fill="#111111"/>
<path d="M42.8348 53.4413C43.5029 53.4413 44.0445 52.8997 44.0445 52.2316C44.0445 51.5636 43.5029 51.022 42.8348 51.022C42.1667 51.022 41.6251 51.5636 41.6251 52.2316C41.6251 52.8997 42.1667 53.4413 42.8348 53.4413Z" fill="#111111"/>
<path d="M36.1299 52.3878L36.1144 52.2809C35.7096 49.4475 33.6682 47.1152 30.9133 46.3392L28.9699 45.7919C27.8741 45.4835 27.1088 44.4664 27.1088 43.3187V43.2434C27.1088 42.0343 27.9745 41.0129 29.1671 40.8145L30.3234 40.6223C32.6662 40.2328 34.3668 38.2261 34.3668 35.851C34.3668 34.0011 35.6833 32.3953 37.4974 32.0324L39.4427 31.6433L38.9681 29.271L37.0228 29.6601C34.0822 30.2481 31.9477 32.8518 31.9477 35.851C31.9477 37.0382 31.0977 38.0409 29.9268 38.2358L28.7706 38.428C26.4059 38.8209 24.6896 40.8462 24.6896 43.2434V43.3187C24.6896 45.5454 26.1801 47.52 28.3143 48.1208L30.2575 48.668C32.0912 49.1846 33.4501 50.737 33.7196 52.624L33.735 52.7309C34.1963 55.9607 36.6617 58.4862 39.8696 59.0147C41.3545 59.2594 42.6357 59.4729 42.6361 59.473L43.0336 57.0865C43.0336 57.0865 41.7505 56.8727 40.263 56.6276C38.1021 56.2715 36.4413 54.5681 36.1299 52.3878Z" fill="#111111"/>
<path d="M68.238 37.3833C68.238 39.3655 67.1366 41.1477 65.3635 42.0342C64.1519 42.6401 63.3993 43.8581 63.3993 45.2127C63.3993 46.1617 63.7689 47.0541 64.4401 47.7253L64.9203 48.2056C65.4996 48.7848 65.8187 49.5551 65.8187 50.3744C65.8187 52.0653 64.4427 53.4413 62.7515 53.4413C61.1977 53.4413 59.8007 54.3048 59.1059 55.6944L58.5606 56.7849C58.0994 57.7071 57.1724 58.2801 56.1413 58.2801C55.1102 58.2801 54.1831 57.7071 53.7219 56.7847L53.5941 56.5293L51.4302 57.6114L51.5579 57.8666C52.4315 59.614 54.1876 60.6994 56.1413 60.6994C58.0949 60.6994 59.851 59.614 60.7246 57.8669L61.2697 56.7766C61.5522 56.2117 62.1199 55.8607 62.7515 55.8607C65.7768 55.8607 68.238 53.3995 68.238 50.3742C68.238 48.9087 67.6674 47.5309 66.6311 46.4946L66.1509 46.0144C65.9366 45.8003 65.8187 45.5154 65.8187 45.2125C65.8187 44.7802 66.059 44.3914 66.4456 44.198C69.0435 42.899 70.6574 40.2878 70.6574 37.3833V36.5059H68.238V37.3833Z" fill="#111111"/>
<path d="M72.0345 11.496L71.0398 11.1646L70.2748 13.4599L71.2693 13.7912C72.3505 14.1515 73.0768 15.1592 73.0768 16.2986C73.0768 17.1841 72.6367 18.0063 71.8999 18.4976L69.098 20.3657L70.2829 22.7356C70.528 23.2256 70.6575 23.7745 70.6575 24.3225C70.6575 25.9541 69.5521 27.3697 67.9695 27.7656L66.7352 28.0742L67.322 30.4211L68.5563 30.1125C71.2181 29.4472 73.0769 27.0662 73.0769 24.3225C73.0769 23.4007 72.8592 22.4779 72.4468 21.6535L72.217 21.1941L73.2419 20.5107C74.6534 19.5695 75.4961 17.995 75.4961 16.2987C75.4961 14.1163 74.1051 12.1863 72.0345 11.496Z" fill="#111111"/>
<path d="M64.609 21.281L64.9633 21.6353L66.674 19.9245L66.3198 19.5702C65.9965 19.2471 65.8186 18.8175 65.8186 18.3605C65.8186 17.9036 65.9966 17.474 66.3198 17.1508L67.5293 15.9412L66.3198 14.7315C65.9965 14.4084 65.8186 13.9788 65.8186 13.5218C65.8186 13.0649 65.9966 12.6353 66.3198 12.3121L66.674 11.9579L64.9633 10.2471L64.609 10.6014C63.8289 11.3814 63.3993 12.4187 63.3993 13.5218C63.3993 14.4028 63.6733 15.2417 64.1809 15.9412C63.6733 16.6407 63.3993 17.4796 63.3993 18.3605C63.3993 19.4638 63.8289 20.5009 64.609 21.281Z" fill="#111111"/>
<path d="M57.9434 22.4091L57.2623 22.5794C55.2517 23.082 53.5669 24.4335 52.64 26.2872L54.804 27.3693C55.4147 26.148 56.5247 25.2575 57.8493 24.9263L58.5304 24.7561C59.9728 24.3954 60.9801 23.1052 60.9801 21.6185C60.9801 20.7546 60.6437 19.9423 60.0328 19.3314L58.893 18.1916C58.6787 17.9775 58.5608 17.6926 58.5608 17.3897C58.5608 16.9574 58.8011 16.5687 59.1877 16.3753L60.3115 15.8134L59.2294 13.6494L58.1056 14.2113C56.894 14.8172 56.1414 16.0352 56.1414 17.3897C56.1414 18.3387 56.511 19.2312 57.1822 19.9024L58.322 21.0422C58.4738 21.1939 58.5608 21.4039 58.5608 21.6185C58.5606 21.9932 58.3067 22.3183 57.9434 22.4091Z" fill="#111111"/>
<path d="M44.0445 3.1358C44.3676 2.81251 44.7972 2.63469 45.2542 2.63469C45.7111 2.63469 46.1407 2.81266 46.4638 3.1358L47.1724 3.84436C47.9525 4.62445 48.9898 5.05404 50.0929 5.05404C51.1959 5.05404 52.2332 4.62445 53.0133 3.84436L53.3676 3.49008L51.6568 1.77929L51.3025 2.13358C50.9794 2.45686 50.5498 2.63469 50.0929 2.63469C49.6359 2.63469 49.2063 2.45671 48.8832 2.13358L48.1746 1.42501C47.3945 0.644919 46.3574 0.215332 45.2542 0.215332C44.1509 0.215332 43.1138 0.644919 42.3337 1.42501L41.9794 1.77929L43.6902 3.49008L44.0445 3.1358Z" fill="#111111"/>
<path d="M25.8993 5.05404C27.0025 5.05404 28.0397 4.62445 28.8198 3.84436L29.5284 3.1358C29.8515 2.81251 30.2811 2.63469 30.738 2.63469C31.195 2.63469 31.6246 2.81266 31.9477 3.1358L32.302 3.49008L34.0128 1.77929L33.6585 1.42501C32.8784 0.644919 31.8413 0.215332 30.738 0.215332C29.6348 0.215332 28.5977 0.644919 27.8176 1.42501L27.109 2.13358C26.7859 2.45686 26.3563 2.63469 25.8993 2.63469C25.4424 2.63469 25.0128 2.45671 24.6896 2.13358L24.3354 1.77929L22.6246 3.49008L22.9789 3.84436C23.7589 4.62445 24.7961 5.05404 25.8993 5.05404Z" fill="#111111"/>
<path d="M14.1568 15.5869L15.8676 13.8761L15.5475 13.556C15.2023 13.2107 15.0122 12.7518 15.0122 12.2639C15.0122 11.4239 15.5814 10.6951 16.3962 10.4912L17.6247 10.1841C18.9354 9.85631 19.8509 8.68383 19.8509 7.33262C19.8509 6.21216 19.2284 5.2048 18.2263 4.70384L18.0027 4.59194C17.6504 4.41579 17.4316 4.06165 17.4316 3.6679C17.4316 3.09814 17.895 2.63469 18.4648 2.63469H19.8509V0.215332H18.4648C16.5611 0.215332 15.0122 1.76417 15.0122 3.6679C15.0122 4.98403 15.7435 6.16725 16.9203 6.75576L17.144 6.86765C17.3213 6.95626 17.4314 7.13454 17.4314 7.33262C17.4314 7.57153 17.2695 7.77899 17.0377 7.83706L15.8095 8.14401C13.9156 8.61745 12.5929 10.3116 12.5929 12.2639C12.5929 13.3982 13.0345 14.4647 13.8367 15.2667L14.1568 15.5869Z" fill="#111111"/>
<path d="M13.094 31.667C12.7707 31.3439 12.5929 30.9143 12.5929 30.4574C12.5929 30.0004 12.7709 29.5708 13.094 29.2477L13.4483 28.8934L11.7375 27.1826L11.3832 27.5369C10.6031 28.317 10.1735 29.3543 10.1735 30.4574C10.1735 31.5604 10.6031 32.5977 11.3832 33.3778L12.5929 34.5874V35.0104C12.5929 37.1399 13.7761 39.0545 15.6809 40.007L16.7629 37.8431C15.6832 37.3031 15.0122 36.2178 15.0122 35.0104V33.5853L13.094 31.667Z" fill="#111111"/>
<path d="M15.0122 48.7011C15.0122 46.6483 13.5425 44.9133 11.5178 44.576L8.81308 44.1252C8.19948 44.023 7.75416 43.4974 7.75416 42.8753C7.75416 42.3922 8.02256 41.9579 8.45472 41.7418L9.50487 41.2167L8.42281 39.0527L7.37266 39.5779C6.11566 40.2065 5.33481 41.4698 5.33481 42.8753C5.33481 44.6848 6.63022 46.2142 8.41525 46.5118L11.1201 46.9625C11.9735 47.1045 12.5929 47.8358 12.5929 48.7011C12.5929 50.6238 13.8955 52.2921 15.7606 52.7582L18.3478 53.405L18.9346 51.058L16.3474 50.4113C15.5613 50.2147 15.0122 49.5116 15.0122 48.7011Z" fill="#111111"/>
<path d="M5.83591 37.7155C5.51263 37.3924 5.3348 36.9628 5.3348 36.5058C5.3348 36.0489 5.51278 35.6193 5.83591 35.2961L6.80683 34.3252C7.41772 33.7143 7.75416 32.902 7.75416 32.0382C7.75416 30.5515 6.7468 29.2612 5.30441 28.9006L3.53269 28.4575C3.16933 28.3665 2.91545 28.0416 2.91545 27.6669C2.91545 27.4523 3.00239 27.2423 3.15421 27.0906L3.77084 26.474L2.06006 24.7632L1.44342 25.3798C0.832535 25.9909 0.496094 26.8032 0.496094 27.667C0.496094 29.1537 1.50345 30.444 2.94584 30.8046L4.71757 31.2477C5.08092 31.3387 5.3348 31.6636 5.3348 32.0383C5.3348 32.2529 5.24786 32.4629 5.09604 32.6146L4.12513 33.5854C3.34504 34.3655 2.91545 35.4028 2.91545 36.5058C2.91545 37.6089 3.34504 38.6462 4.12513 39.4263L4.47941 39.7806L6.1902 38.0698L5.83591 37.7155Z" fill="#111111"/>
<path d="M8.96382 19.8169C8.96382 21.6184 9.96468 23.2379 11.5758 24.0432L12.0517 24.2812L13.1337 22.1173L12.6577 21.8791C11.8716 21.4861 11.383 20.6959 11.383 19.8168C11.383 18.5545 10.8914 17.3679 9.99915 16.4753L9.81922 16.2954L8.10843 18.0062L8.28837 18.1861C8.724 18.6219 8.96382 19.2011 8.96382 19.8169Z" fill="#111111"/>
<path d="M2.06006 21.6351L3.77084 19.9243L3.5909 19.7443C3.15527 19.3089 2.91545 18.7297 2.91545 18.1138C2.91545 17.2349 3.40386 16.4445 4.1903 16.0513L5.3348 15.4787V14.7313C5.3348 13.3973 6.42019 12.3119 7.75416 12.3119V9.89258C5.35023 9.89258 3.35018 11.6546 2.9776 13.9551C1.44327 14.7813 0.496094 16.3615 0.496094 18.1137C0.496094 19.376 0.987676 20.5625 1.87996 21.4551L2.06006 21.6351Z" fill="#111111"/>
</g>
<defs>
<clipPath id="clip0_94_161">
<rect width="75" height="75" fill="white" transform="translate(0.496094 0.215332)"/>
</clipPath>
</defs>
</svg>
