<svg width="76" height="76" viewBox="0 0 76 76" fill="none" xmlns="http://www.w3.org/2000/svg">
<path d="M19.8342 25.436C19.0247 24.5045 19.1217 23.0891 20.0506 22.2748L28.7579 14.6411C29.6867 13.8268 31.0958 13.9217 31.9051 14.8532L58.5373 45.5024L46.4664 56.0852L19.8342 25.436Z" fill="#F5F7FA"/>
<path d="M18.5923 13.8992L20.6929 12.0576C21.6218 11.2433 23.0308 11.3382 23.8401 12.2697L30.1403 19.4574L24.6761 24.248L18.3761 17.0605C17.5667 16.1288 17.6635 14.7135 18.5923 13.8992Z" fill="#3AC0EE"/>
<path d="M61.6604 70.055L70.2633 62.5127C71.2208 61.6732 72.6737 61.7711 73.5081 62.7314C74.3426 63.6918 74.2427 65.151 73.285 65.9907L64.6821 73.533C63.7245 74.3725 62.2717 74.2747 61.4373 73.3143C60.6029 72.3538 60.7027 70.8947 61.6604 70.055Z" fill="#3AC0EE"/>
<path d="M43.6937 58.5156L61.3097 43.0713C62.2673 42.2318 63.7201 42.3296 64.5545 43.29C65.389 44.2503 65.2891 45.7096 64.3314 46.5493L46.7155 61.9934C45.7579 62.8329 44.3051 62.7351 43.4707 61.7747C42.6362 60.8144 42.736 59.3552 43.6937 58.5156Z" fill="#BAC3CC"/>
<path d="M31.9049 14.8532C31.0956 13.9217 29.6866 13.8268 28.7577 14.6411L20.0504 22.275C19.1215 23.0893 19.0247 24.5046 19.834 25.4361L39.458 48.0199L51.5289 37.4371L31.9049 14.8532Z" fill="#FDE86F"/>
<path d="M48.3034 40.265L51.529 37.4371L31.9049 14.8532C31.0956 13.9217 29.6866 13.8268 28.7577 14.6411L27.1186 16.0782L48.3034 40.265Z" fill="#FDDF33"/>
<path d="M39.4579 48.02L40.5973 49.3312L39.4579 48.02Z" fill="#FC7743"/>
<path d="M51.5288 37.437L51.6187 37.5404L51.5288 37.437Z" fill="#FC7743"/>
<path d="M54.0951 40.3903L51.6188 37.5404L51.5288 37.437L39.4579 48.0198L40.5973 49.331L42.0242 50.973L54.0951 40.3903Z" fill="#3AC0EE"/>
<path d="M27.4082 36.6543H33.778V42.1082H27.4082V36.6543Z" fill="#BAC3CC"/>
<path d="M37.3836 74.104H23.8026C22.2759 74.104 21.0383 72.8693 21.0383 71.3463V50.5371C21.0383 49.4825 21.4132 48.4621 22.0962 47.6573L27.4082 41.3989H33.778L39.09 47.6573C39.7731 48.4621 40.1479 49.4825 40.1479 50.5371V71.3463C40.1481 72.8693 38.9104 74.104 37.3836 74.104Z" fill="#F5F7FA"/>
<path d="M39.09 47.6573L33.778 41.3989H27.9187L33.2306 47.6573C33.9137 48.4621 34.2885 49.4825 34.2885 50.5371V71.3463C34.2885 72.8693 33.0509 74.104 31.5242 74.104H37.3836C38.9103 74.104 40.1479 72.8693 40.1479 71.3463V50.5371C40.1479 49.4825 39.773 48.4621 39.09 47.6573Z" fill="#EBEDF0"/>
<path d="M21.0296 65.493H40.1481V53.0942H21.0383L21.0296 65.493Z" fill="#A0E2F7"/>
<path d="M34.2885 53.0942H40.1479V65.493H34.2885V53.0942Z" fill="#85DCF7"/>
<path d="M25.0544 33.3286H36.1319V37.3637H25.0544V33.3286Z" fill="#3AC0EE"/>
<path d="M8.28993 36.6543H14.6598V42.1082H8.28993V36.6543Z" fill="#BAC3CC"/>
<path d="M18.2654 74.104H4.68443C3.15777 74.104 1.92012 72.8693 1.92012 71.3463V50.5371C1.92012 49.4825 2.29497 48.4621 2.97803 47.6573L8.28999 41.3989H14.6599L19.9718 47.6573C20.6549 48.4621 21.0297 49.4825 21.0297 50.5371V71.3463C21.0297 72.8693 19.7921 74.104 18.2654 74.104Z" fill="#F5F7FA"/>
<path d="M19.9718 47.6573L14.6598 41.3989H8.80043L14.1124 47.6573C14.7954 48.4621 15.1703 49.4825 15.1703 50.5371V71.3463C15.1703 72.8693 13.9327 74.104 12.406 74.104H18.2654C19.792 74.104 21.0297 72.8693 21.0297 71.3463V50.5371C21.0297 49.4825 20.6548 48.4621 19.9718 47.6573Z" fill="#EBEDF0"/>
<path d="M1.91992 53.0942H21.0297V65.493H1.91992V53.0942Z" fill="#FDE86F"/>
<path d="M15.1703 53.0942H21.0297V65.493H15.1703V53.0942Z" fill="#FDDF33"/>
<path d="M5.93608 33.3286H17.0135V37.3637H5.93608V33.3286Z" fill="#F7C000"/>
<path d="M26.8062 60.6426H34.3801C35.755 60.6426 35.8175 58.4453 34.3801 58.4453H26.8062C25.4313 58.4453 25.3688 60.6426 26.8062 60.6426Z" fill="#111111"/>
<path d="M15.2619 60.6426C16.6368 60.6426 16.6993 58.4453 15.2619 58.4453H7.68788C6.31298 58.4453 6.25043 60.6426 7.68788 60.6426H15.2619Z" fill="#111111"/>
<path d="M74.3374 62.0107C73.1296 60.6208 70.9264 60.4702 69.539 61.6865L66.0672 64.7303L57.0703 54.3762L59.1596 52.5444C60.1933 51.638 58.7922 49.9449 57.711 50.8922L45.9911 61.1674C44.8418 62.1755 43.2671 60.3507 44.4179 59.3417L62.0341 43.8973C63.1838 42.8898 64.7582 44.7141 63.6073 45.723L61.8463 47.2669C60.8125 48.1732 62.2135 49.8664 63.2948 48.9191L65.0559 47.3751C68.3134 44.519 63.9266 39.3163 60.5855 42.245L58.6425 43.9484L53.8556 38.4395L52.3581 36.7159C52.3579 36.7158 52.3578 36.7156 52.3576 36.7154L32.7342 14.1323C31.551 12.7708 29.3924 12.6231 28.0333 13.8148L27.2414 14.509L24.6695 11.5488C23.4863 10.1871 21.3279 10.0399 19.9687 11.2312L19.7481 11.4246L10.3252 0.580512C9.42313 -0.457182 7.72391 0.936761 8.66668 2.02177L18.0959 12.8732L17.8681 13.0728C16.4872 14.2835 16.343 16.3954 17.5468 17.7807L20.1253 20.748L19.3262 21.4485C17.9453 22.6592 17.8011 24.771 19.0049 26.1565L24.4435 32.4155C24.1493 32.6126 23.9557 32.9479 23.9557 33.3285V37.3635C23.9557 37.9703 24.4474 38.4622 25.0543 38.4622H26.3094V40.9953L21.2586 46.9461C21.1087 47.3265 20.9589 47.3265 20.8092 46.9461L15.7584 40.9953V38.4622H17.0135C17.6204 38.4622 18.1121 37.9703 18.1121 37.3635V33.3285C18.1121 32.7218 17.6204 32.2299 17.0135 32.2299H5.93607C5.32919 32.2299 4.83744 32.7218 4.83744 33.3285V37.3635C4.83744 37.9703 5.32919 38.4622 5.93607 38.4622H7.19115V40.9953L2.14038 46.9461C1.28975 47.9482 0.821289 49.2235 0.821289 50.5367V56.6581C0.821289 58.033 3.01855 58.0956 3.01855 56.6581V54.193H19.931V64.3946H3.01855V62.5279C3.01855 61.153 0.821289 61.0905 0.821289 62.5279V71.3461C0.821289 73.4726 2.5542 75.2026 4.68437 75.2026H18.2653C19.3504 75.2026 20.3316 74.753 21.0339 74.0316C21.7363 74.753 22.7176 75.2026 23.8024 75.2026H37.3836C39.5136 75.2026 41.2465 73.4726 41.2465 71.3461V51.753L44.9193 55.9798L42.9693 57.6894C39.6746 60.5783 44.1379 65.7139 47.4397 62.8194L55.418 55.8246L64.4149 66.1787L60.936 69.2287C57.641 72.1175 62.1047 77.2532 65.4064 74.3588L74.0093 66.8165C75.4192 65.5808 75.5663 63.4248 74.3374 62.0107ZM52.6071 49.2399L49.6062 45.7865L53.9896 41.9437L56.9903 45.397L52.6071 49.2399ZM41.0047 48.1246L51.4233 38.9904L52.5485 40.285L42.1297 49.4193L41.0047 48.1246ZM19.2053 16.3394C18.7928 15.8647 18.8426 15.1404 19.3167 14.725L21.4172 12.8834C21.8835 12.4747 22.5969 12.5135 23.011 12.9901L25.5895 15.9575L21.7776 19.2996L19.2053 16.3394ZM20.7748 23.1008L29.4819 15.4671C30.0431 15.06 30.5744 15.0955 31.0757 15.5737L33.1411 17.9507L31.7675 19.155C30.7226 20.0712 32.1731 21.7214 33.2161 20.8072L34.5822 19.6094L37.1991 22.6211L33.997 25.4285C32.9521 26.3447 34.4028 27.995 35.4456 27.0807L38.6407 24.2794L41.2576 27.291L39.8841 28.4953C38.8392 29.4115 40.2897 31.0617 41.3326 30.1474L42.6989 28.9496L45.3158 31.9614L42.1134 34.769C41.0685 35.6853 42.5192 37.3356 43.562 36.4212L46.7571 33.62L49.9824 37.3318L39.5634 46.4659L34.8766 40.9952V38.462H36.1317C36.7386 38.462 37.2303 37.9701 37.2303 37.3634V33.3284C37.2303 32.7216 36.7386 32.2297 36.1317 32.2297H27.193L20.6633 24.7152C20.2509 24.2405 20.3009 23.5163 20.7748 23.1008ZM26.1531 34.4271H35.0332V36.2649H33.7782H27.4081H26.1531V34.4271ZM32.6794 38.4622V40.3H28.5068V38.4622H32.6794ZM39.0494 64.3944H22.1369V54.1928H39.0494V64.3944ZM7.0347 34.4271H15.9149V36.2649H14.6598H8.28978H7.0347V34.4271ZM13.5612 38.4622V40.3H9.38841V38.4622H13.5612ZM3.01855 51.9955C2.95498 50.7424 2.95761 49.3788 3.81542 48.3677L8.79837 42.4971H14.1512L19.1341 48.3677C19.992 49.3786 19.9947 50.7422 19.931 51.9955H3.01855ZM18.2653 73.005H4.68437C3.76577 73.005 3.01855 72.2607 3.01855 71.3458V66.5917H19.931V71.346C19.931 72.2607 19.1838 73.005 18.2653 73.005ZM37.3837 73.005H23.8026C22.884 73.005 22.1369 72.2607 22.1369 71.3458V66.5917H39.0494V71.346C39.0494 72.2607 38.3022 73.005 37.3837 73.005ZM38.2524 48.3679C39.1102 49.3788 39.113 50.7424 39.0492 51.9957H22.1369C22.0733 50.7425 22.076 49.3789 22.9338 48.3679L27.9167 42.4972H33.2039L38.2524 48.3679ZM43.5708 51.0778L47.954 47.235L50.9549 50.6883L46.5716 54.5312L43.5708 51.0778ZM72.5608 65.1645L63.958 72.7068C62.8087 73.7147 61.2338 71.89 62.3847 70.8812L70.9876 63.3388C72.1432 62.3259 73.727 64.1422 72.5608 65.1645Z" fill="#111111"/>
</svg>
